<svg xmlns="http://www.w3.org/2000/svg" viewBox="0 0 96 96" aria-hidden="true">
  <defs>
    <linearGradient id="almaGradient" x1="0" y1="0" x2="1" y2="1">
      <stop offset="0%" stop-color="#6B46C1"/>
      <stop offset="100%" stop-color="#9F7AEA"/>
    </linearGradient>
    <linearGradient id="almaGlow" x1="0.2" y1="0.1" x2="0.8" y2="0.9">
      <stop offset="0%" stop-color="#FFFFFF" stop-opacity="0.22"/>
      <stop offset="100%" stop-color="#FFFFFF" stop-opacity="0.02"/>
    </linearGradient>
  </defs>

  <circle cx="48" cy="48" r="43.5" fill="url(#almaGradient)" stroke="#3A1F6B" stroke-width="3.5" />
  <circle cx="48" cy="48" r="42" fill="url(#almaGlow)" opacity="0.35"/>

  <g fill="none" stroke="#F6AD55" stroke-linecap="round" stroke-linejoin="round" stroke-width="3">
    <!-- Open book base -->
    <path d="M22 56c8-4.2 16.8-4.2 26 0 9.2-4.2 18-4.2 26 0v12.5c-8-4.7-16.8-4.5-26 1-9.2-5.5-18-5.7-26-1z" fill="#FDF9FF" fill-opacity="0.9" stroke="#E17B32"/>
    <path d="M22 56v12c7.2-3.8 15.2-3.3 23.5 1.4" opacity="0.75" stroke="#F6AD55"/>
    <path d="M74 56v12c-7.2-3.8-15.2-3.3-23.5 1.4" opacity="0.75" stroke="#F6AD55"/>

    <!-- Swirl heart -->
    <path d="M48 25.5c-9.5 0-17.3 7.3-17.3 16.4 0 5.6 3.1 10.1 8 12.3 3.6 1.6 7.9-0.9 8.1-4.7 0.1-3-2.4-5.5-5.7-5.5-1.8 0-3.4 0.7-4.6 1.9 0.4-6 5.4-10.7 11.5-10.7 6.6 0 12 5.3 12 11.8 0 6.7-5.4 12.1-12 12.1-1 0-2-0.1-2.9-0.3" />
    <path d="M52.8 31c4.1 1 7.1 4.9 7.1 9.4 0 5.2-4.2 9.4-9.4 9.4-3.3 0-5.8-2.2-5.8-5 0-2.4 1.9-4.3 4.5-4.3 1.6 0 3 .8 3.7 2" />
    <path d="M44.5 34.2c1.5-1.7 3.5-2.7 5.9-2.7 4.6 0 8.3 3.6 8.3 8 0 2.1-0.8 4.1-2.1 5.6" opacity="0.8"/>
  </g>

  <circle cx="48" cy="24" r="5.2" fill="#FDF9FF" stroke="#F6AD55" stroke-width="2.5"/>
</svg>
